<!DOCTYPE svg PUBLIC "-//W3C//DTD SVG 1.1//EN" "http://www.w3.org/Graphics/SVG/1.1/DTD/svg11.dtd">
<!-- Uploaded to: SVG Repo, www.svgrepo.com, Transformed by: SVG Repo Mixer Tools -->
<svg fill="#000000" width="800px" height="800px" viewBox="-20 -20 240.00 240.00" data-name="Layer 1" id="Layer_1" xmlns="http://www.w3.org/2000/svg" stroke="#000000">
<g id="SVGRepo_bgCarrier" stroke-width="0">
<rect x="-20" y="-20" width="240.00" height="240.00" rx="0" fill="#d6d6d6" strokewidth="0"/>
</g>
<g id="SVGRepo_tracerCarrier" stroke-linecap="round" stroke-linejoin="round"/>
<g id="SVGRepo_iconCarrier">
<title/>
<path d="M171.28,41.69a48.29,48.29,0,0,0-68.5,0l-2.5,3-2.5-2.5a48.29,48.29,0,0,0-68.5,0c-19,18.5-19,49-1,68l50,53a29.92,29.92,0,0,0,43.5,0l50.5-53.5c17.5-19.5,17-49.5-1-68Zm-14,53.5-50.5,53.5a10.26,10.26,0,0,1-14.5,0l-50-53c-10.5-11.5-10.5-29,.5-40s29-11,40.5,0l2.5,2.5c8,8,20.5,8,28,0l2.5-2.5a28.37,28.37,0,0,1,40,0,27.78,27.78,0,0,1,1,39.5Z"/>
</g>
</svg>