<?xml version="1.0" encoding="UTF-8"?>
<svg width="16px" height="14px" viewBox="0 0 16 14" version="1.1" xmlns="http://www.w3.org/2000/svg" xmlns:xlink="http://www.w3.org/1999/xlink">
    <title>Icons/Communication/USP/Returns/delivery-same-day</title>
    <g id="MVP1-Reloaded" stroke="none" stroke-width="1" fill="none" fill-rule="evenodd">
        <g id="Product-Detail-Page-(PDP)---1.-Size-(Mouse-hover-&amp;-Selection)---2.-Product-Badge---3.-Highlights-More-than-4" transform="translate(-995.000000, -862.000000)">
            <g id="Group" transform="translate(991.000000, 856.500000)">
                <path d="M8.3899,9.3587 C10.1249,6.5357 13.8209,5.6537 16.6429,7.3897 C19.4669,9.1247 20.3479,12.8197 18.6129,15.6437 C16.8779,18.4657 13.1819,19.3477 10.3589,17.6117 C9.7019,17.2077 9.1279,16.6807 8.6699,16.0587" id="Stroke-1" stroke="#000000"></path>
                <line x1="6.4998" y1="14.4686" x2="8.4998" y2="14.4686" id="Stroke-3" stroke="#000000" stroke-linecap="square"></line>
                <line x1="5.4998" y1="12.4686" x2="8.4998" y2="12.4686" id="Stroke-5" stroke="#000000" stroke-linecap="square"></line>
                <line x1="8.4998" y1="10.4686" x2="4.4998" y2="10.4686" id="Stroke-7" stroke="#000000" stroke-linecap="square"></line>
                <path d="M13.3904,12.8987 C13.5934,12.8817 13.7444,12.7037 13.7284,12.4997 C13.7114,12.2957 13.5344,12.1447 13.3294,12.1607 C13.1344,12.1767 12.9854,12.3427 12.9904,12.5387 C12.9904,12.7427 13.1554,12.9087 13.3604,12.9087 C13.3634,12.9087 13.3674,12.9087 13.3694,12.9087 L13.3904,12.8987 Z M14.3904,12.8487 C14.2304,13.2697 13.8394,13.5587 13.3904,13.5887 C12.8044,13.5887 12.3294,13.1147 12.3294,12.5297 C12.3294,12.5157 12.3294,12.5027 12.3294,12.4887 C12.3424,12.0357 12.6324,11.6377 13.0604,11.4887 L13.0604,8.3287 C13.0604,8.1357 13.2164,7.9787 13.4104,7.9787 C13.6034,7.9787 13.7594,8.1357 13.7594,8.3287 L13.7594,11.4687 C14.0624,11.5997 14.2974,11.8487 14.4104,12.1587 L16.0794,12.1587 C16.2704,12.1907 16.3984,12.3717 16.3664,12.5627 C16.3404,12.7087 16.2264,12.8237 16.0794,12.8487 L14.3904,12.8487 Z" id="Fill-9" fill="#000000"></path>
                <path d="M13.3904,12.8987 C13.5934,12.8817 13.7444,12.7037 13.7284,12.4997 C13.7114,12.2957 13.5344,12.1447 13.3294,12.1607 C13.1344,12.1767 12.9854,12.3427 12.9904,12.5387 C12.9904,12.7427 13.1554,12.9087 13.3604,12.9087 C13.3634,12.9087 13.3674,12.9087 13.3694,12.9087 L13.3904,12.8987 Z M14.3904,12.8487 C14.2304,13.2697 13.8394,13.5587 13.3904,13.5887 C12.8044,13.5887 12.3294,13.1147 12.3294,12.5297 C12.3294,12.5157 12.3294,12.5027 12.3294,12.4887 C12.3424,12.0357 12.6324,11.6377 13.0604,11.4887 L13.0604,8.3287 C13.0604,8.1357 13.2164,7.9787 13.4104,7.9787 C13.6034,7.9787 13.7594,8.1357 13.7594,8.3287 L13.7594,11.4687 C14.0624,11.5997 14.2974,11.8487 14.4104,12.1587 L16.0794,12.1587 C16.2704,12.1907 16.3984,12.3717 16.3664,12.5627 C16.3404,12.7087 16.2264,12.8237 16.0794,12.8487 L14.3904,12.8487 Z" id="Stroke-11" stroke="#000000" stroke-width="0.142"></path>
            </g>
        </g>
    </g>
</svg>